<mxfile host="app.diagrams.net" modified="2023-11-08T23:43:11.143Z" agent="Mozilla/5.0 (Windows NT 10.0; Win64; x64) AppleWebKit/537.36 (KHTML, like Gecko) Chrome/119.0.0.0 Safari/537.36" etag="6J6zm04lxhsWBjWrYtB0" version="22.1.0" type="github">
  <diagram name="Page-1" id="j2iVqRpQ9PsFM2D-o5aS">
    <mxGraphModel dx="1808" dy="618" grid="1" gridSize="10" guides="1" tooltips="1" connect="1" arrows="1" fold="1" page="1" pageScale="1" pageWidth="827" pageHeight="1169" math="0" shadow="0">
      <root>
        <mxCell id="0" />
        <mxCell id="1" parent="0" />
        <mxCell id="oUGVR8GmQ27rBK8TKxj3-9" value="" style="edgeStyle=orthogonalEdgeStyle;rounded=0;orthogonalLoop=1;jettySize=auto;html=1;entryX=0.5;entryY=0;entryDx=0;entryDy=0;" edge="1" parent="1" source="oUGVR8GmQ27rBK8TKxj3-1" target="oUGVR8GmQ27rBK8TKxj3-3">
          <mxGeometry relative="1" as="geometry" />
        </mxCell>
        <mxCell id="oUGVR8GmQ27rBK8TKxj3-1" value="Peak Detection" style="shape=process;whiteSpace=wrap;html=1;backgroundOutline=1;fillColor=#dae8fc;strokeColor=#6c8ebf;" vertex="1" parent="1">
          <mxGeometry x="340" y="110" width="120" height="60" as="geometry" />
        </mxCell>
        <mxCell id="oUGVR8GmQ27rBK8TKxj3-8" value="" style="edgeStyle=orthogonalEdgeStyle;rounded=0;orthogonalLoop=1;jettySize=auto;html=1;" edge="1" parent="1" source="oUGVR8GmQ27rBK8TKxj3-2">
          <mxGeometry relative="1" as="geometry">
            <mxPoint x="400" y="110" as="targetPoint" />
          </mxGeometry>
        </mxCell>
        <mxCell id="oUGVR8GmQ27rBK8TKxj3-2" value="30s Single Lead ECGs&amp;nbsp;" style="rounded=1;whiteSpace=wrap;html=1;fillColor=#fff2cc;strokeColor=#d6b656;" vertex="1" parent="1">
          <mxGeometry x="340" y="20" width="120" height="60" as="geometry" />
        </mxCell>
        <mxCell id="oUGVR8GmQ27rBK8TKxj3-11" style="edgeStyle=orthogonalEdgeStyle;rounded=0;orthogonalLoop=1;jettySize=auto;html=1;exitX=0.5;exitY=1;exitDx=0;exitDy=0;entryX=0.5;entryY=0;entryDx=0;entryDy=0;" edge="1" parent="1" source="oUGVR8GmQ27rBK8TKxj3-3" target="oUGVR8GmQ27rBK8TKxj3-4">
          <mxGeometry relative="1" as="geometry" />
        </mxCell>
        <mxCell id="oUGVR8GmQ27rBK8TKxj3-3" value="Draw Lorenz Plot (modified version)" style="shape=process;whiteSpace=wrap;html=1;backgroundOutline=1;fillColor=#dae8fc;strokeColor=#6c8ebf;" vertex="1" parent="1">
          <mxGeometry x="340" y="190" width="120" height="60" as="geometry" />
        </mxCell>
        <mxCell id="oUGVR8GmQ27rBK8TKxj3-12" style="edgeStyle=orthogonalEdgeStyle;rounded=0;orthogonalLoop=1;jettySize=auto;html=1;exitX=0.5;exitY=1;exitDx=0;exitDy=0;entryX=0.5;entryY=0;entryDx=0;entryDy=0;" edge="1" parent="1" source="oUGVR8GmQ27rBK8TKxj3-4" target="oUGVR8GmQ27rBK8TKxj3-6">
          <mxGeometry relative="1" as="geometry" />
        </mxCell>
        <mxCell id="oUGVR8GmQ27rBK8TKxj3-4" value="MobilenetV2" style="shape=process;whiteSpace=wrap;html=1;backgroundOutline=1;fillColor=#dae8fc;strokeColor=#6c8ebf;" vertex="1" parent="1">
          <mxGeometry x="340" y="270" width="120" height="60" as="geometry" />
        </mxCell>
        <mxCell id="oUGVR8GmQ27rBK8TKxj3-13" style="edgeStyle=orthogonalEdgeStyle;rounded=0;orthogonalLoop=1;jettySize=auto;html=1;exitX=0.5;exitY=1;exitDx=0;exitDy=0;entryX=0.5;entryY=0;entryDx=0;entryDy=0;" edge="1" parent="1" source="oUGVR8GmQ27rBK8TKxj3-6" target="oUGVR8GmQ27rBK8TKxj3-7">
          <mxGeometry relative="1" as="geometry" />
        </mxCell>
        <mxCell id="oUGVR8GmQ27rBK8TKxj3-6" value="Classified with &lt;b&gt;AF/non-AF&lt;/b&gt;, each segment get a &lt;b&gt;probability value&lt;/b&gt;" style="rounded=1;whiteSpace=wrap;html=1;fillColor=#fff2cc;strokeColor=#d6b656;" vertex="1" parent="1">
          <mxGeometry x="325" y="350" width="150" height="80" as="geometry" />
        </mxCell>
        <mxCell id="oUGVR8GmQ27rBK8TKxj3-7" value="Make &lt;b&gt;participant level &lt;/b&gt;diagnosis" style="shape=process;whiteSpace=wrap;html=1;backgroundOutline=1;fillColor=#dae8fc;strokeColor=#6c8ebf;" vertex="1" parent="1">
          <mxGeometry x="340" y="460" width="120" height="60" as="geometry" />
        </mxCell>
      </root>
    </mxGraphModel>
  </diagram>
</mxfile>
